<svg width="50" height="8" xmlns="http://www.w3.org/2000/svg"><g fill="#1126B4" fill-rule="nonzero"><path d="M47.023.317c-1.122 0-2.136.436-3.396 1.235C43.27.846 42.633.317 41.279.317c-1.125 0-2.12.454-3.266 1.142L37.9.485h-1.728v7.128h2.085v-4.63c.976-.627 1.709-.973 2.365-.973.847 0 1.279.438 1.279 1.812v3.79h2.083v-3.85c0-.323-.017-.533-.057-.744 1.034-.662 1.785-1.008 2.423-1.008.846 0 1.296.438 1.296 1.812v3.79h2.082v-4.19c0-2.173-.863-3.105-2.705-3.105M0 .483v1.089l1.042.319v5.721h2.083V.483zM11.57.317c-1.202 0-2.251.454-3.396 1.141L8.059.484H6.333v7.129h2.083V2.98c.978-.626 1.766-.972 2.482-.972.955 0 1.405.438 1.405 1.812v3.791h2.066v-4.19c0-2.173-.864-3.105-2.799-3.105M18.933 4.086c0 1.677.62 2.118 2.176 2.118.528 0 1.617-.132 2.216-.246l.167 1.558c-.693.157-1.951.307-2.72.307-2.647 0-3.925-.76-3.925-3.7 0-2.95 1.636-3.79 4.076-3.79.767 0 1.952.134 2.627.285L23.364 2.2c-.604-.115-1.6-.227-2.273-.227-1.35 0-2.158.381-2.158 2.113M33.785 4.033c0 2.97-1.56 3.827-4.21 3.827-2.664 0-4.125-.76-4.125-3.736 0-2.973 1.558-3.827 4.207-3.827 2.665 0 4.128.76 4.128 3.736m-2.085.036c-.017-1.772-.789-2.156-2.101-2.156-1.294 0-2.066.384-2.066 2.156 0 1.829.75 2.173 2.085 2.173 1.334 0 2.1-.366 2.082-2.173"/></g></svg>