<svg width="16" height="16" xmlns="http://www.w3.org/2000/svg"><path d="M8 0A8 8 0 0 0 5.47 15.59c.4.075.546-.172.546-.385 0-.19-.007-.693-.01-1.36-2.226.483-2.695-1.073-2.695-1.073-.364-.924-.889-1.17-.889-1.17-.726-.496.055-.486.055-.486.803.056 1.225.824 1.225.824.714 1.223 1.873.87 2.329.665.073-.517.28-.87.508-1.07-1.777-.201-3.644-.888-3.644-3.953 0-.873.311-1.588.823-2.147-.082-.202-.357-1.016.079-2.117 0 0 .671-.215 2.2.82A7.663 7.663 0 0 1 8 3.868a7.67 7.67 0 0 1 2.003.27c1.527-1.035 2.198-.82 2.198-.82.436 1.101.162 1.915.08 2.117.513.559.822 1.274.822 2.147 0 3.073-1.87 3.75-3.652 3.947.286.247.542.736.542 1.482 0 1.07-.01 1.932-.01 2.194 0 .215.145.463.55.385A8 8 0 0 0 8 0" fill="#1126B4" fill-rule="evenodd"/></svg>